<?xml version="1.0" encoding="UTF-8"?>
<svg xmlns="http://www.w3.org/2000/svg" viewBox="330 141 363 183">
  <path fill="#000" transform="translate(458,146)" d="M0 0 C0.07 15.83 0.12 31.66 0.16 47.49 C0.17 54.84 0.19 62.19 0.23 69.54 C0.26 75.96 0.28 82.37 0.28 88.78 C0.29 92.17 0.3 95.56 0.32 98.95 C0.34 102.75 0.34 106.55 0.34 110.35 C0.35 111.45 0.36 112.56 0.37 113.7 C0.3 131.76 -6.74 145.74 -18.73 158.89 C-29.91 169.8 -46.24 174.97 -61.5 175.38 C-78.69 174.92 -94.37 168.64 -106.67 156.57 C-117.66 144.47 -123.65 129.98 -124.38 113.56 C-123.52 95.91 -117.55 80.07 -104.85 67.55 C-92.12 56.15 -76.2 50.41 -59.18 50.75 C-46.99 51.72 -36.09 55.2 -26 62 C-26.02 60.84 -26.03 59.67 -26.05 58.47 C-26.1 54.12 -26.14 49.76 -26.16 45.4 C-26.18 43.53 -26.2 41.65 -26.23 39.77 C-26.26 37.06 -26.28 34.34 -26.29 31.63 C-26.31 30.8 -26.32 29.97 -26.34 29.12 C-26.34 19.73 -23.73 12.77 -17.25 5.95 C-11.86 1.27 -7.02 -0.09 0 0 Z M-89.81 89.69 C-97.31 98.95 -98.11 109.55 -97 121 C-95.15 130.35 -90.16 137.24 -82.5 142.82 C-72.95 148.84 -63.23 150.73 -52.07 148.38 C-41.85 145.11 -34.18 138.8 -29.12 129.36 C-24.82 120.3 -24.43 109.73 -27.56 100.19 C-31.77 90.17 -38.43 83.69 -48.12 78.97 C-63.35 72.94 -78.89 78.33 -89.81 89.69 Z "/><path fill="#000" transform="translate(605,194)" d="M0 0 C-0.33 0.66 -0.66 1.32 -1 2 C-1.34 1.99 -1.34 1.99 -3.05 1.93 C-16.91 1.66 -28.82 4.68 -39.12 14.5 C-45.47 21.27 -51.88 29 -55.52 37.6 C-57.04 41.08 -58.71 43.39 -61.19 46.25 C-65.11 50.89 -68.74 55.65 -72.27 60.59 C-74 63 -74 63 -75.85 65 C-77 67 -77 67 -76.56 69.28 C-74.41 73.02 -71.77 76.2 -69 79.5 C-67.81 80.93 -66.63 82.37 -65.45 83.8 C-64.86 84.51 -64.27 85.22 -63.67 85.96 C-61.35 88.8 -59.1 91.7 -56.88 94.62 C-53.39 99.19 -49.87 103.73 -46.31 108.25 C-45.85 108.84 -45.39 109.42 -44.92 110.02 C-42.87 112.63 -40.82 115.23 -38.75 117.81 C-38.11 118.62 -37.47 119.42 -36.81 120.25 C-36.26 120.94 -35.71 121.62 -35.14 122.33 C-34 124 -34 124 -34 126 C-37.67 127.84 -42.02 127.23 -46.06 127.25 C-46.52 127.26 -46.52 127.26 -48.84 127.31 C-58.18 127.37 -65.26 125.63 -72 119 C-73.6 117.09 -75.14 115.13 -76.62 113.12 C-77.48 111.98 -78.33 110.85 -79.19 109.71 C-79.64 109.11 -80.08 108.51 -80.55 107.9 C-83.68 103.81 -86.97 99.83 -90.24 95.85 C-94 91.22 -94 91.22 -94 89 C-97.59 92.46 -100.67 96.01 -103.69 100 C-103.9 100.28 -103.9 100.28 -104.98 101.69 C-107.22 104.64 -109.45 107.6 -111.66 110.56 C-112.09 111.14 -112.53 111.71 -112.98 112.31 C-114.18 113.91 -115.38 115.52 -116.58 117.12 C-121 122.38 -125.64 126.59 -132.74 127.26 C-133.22 127.26 -133.22 127.26 -135.67 127.27 C-136.73 127.27 -137.78 127.27 -138.87 127.27 C-139.97 127.27 -141.06 127.26 -142.19 127.25 C-143.29 127.26 -144.4 127.27 -145.54 127.27 C-146.59 127.27 -147.64 127.27 -148.73 127.27 C-149.69 127.26 -150.66 127.26 -151.65 127.26 C-154 127 -154 127 -156 125 C-155.43 124.26 -154.86 123.52 -154.27 122.75 C-153.45 121.69 -152.63 120.63 -151.81 119.56 C-151.37 118.98 -150.92 118.41 -150.46 117.81 C-147.92 114.51 -145.39 111.2 -142.86 107.88 C-137.07 100.26 -131.2 92.72 -125.19 85.28 C-120.94 79.98 -116.92 74.55 -113 69 C-114.7 65.05 -117.33 61.89 -120 58.56 C-120.99 57.32 -121.98 56.07 -122.96 54.82 C-123.47 54.19 -123.97 53.56 -124.49 52.91 C-126.86 49.91 -129.22 46.9 -131.56 43.88 C-132.37 42.84 -133.17 41.81 -134 40.74 C-137.25 36.28 -138.25 33.57 -138.23 27.99 C-138.23 26.84 -138.23 25.69 -138.22 24.5 C-138.22 23.91 -138.22 23.91 -138.19 20.88 C-138.19 19.67 -138.19 18.46 -138.19 17.22 C-138.14 8.28 -138.14 8.28 -137 6 C-128.14 6.71 -123.76 10.86 -118.2 17.32 C-114.46 21.88 -110.88 26.56 -107.33 31.25 C-105.02 34.28 -102.7 37.3 -100.38 40.31 C-99.53 41.41 -98.68 42.51 -97.84 43.61 C-97.23 44.4 -96.62 45.19 -96 46 C-92.05 44.48 -90.41 42.16 -88 38.75 C-73 18.08 -55.17 -0.33 -28.94 -4.88 C-18.55 -5.2 -9.56 -4.2 0 0 Z "/><path fill="#000" transform="translate(672.68359375,197.3515625)" d="M0 0 C8.96 6.37 14.32 15.11 16.69 25.9 C19.61 44.88 11.15 61.65 0.24 76.63 C-3.54 81.65 -7.7 86.29 -12.03 90.84 C-14.5 93.45 -16.88 96.13 -19.25 98.84 C-23.02 103.04 -27.03 106.84 -31.28 110.55 C-32.8 111.87 -34.29 113.23 -35.74 114.62 C-41.08 119.68 -46.73 123.28 -54.23 123.84 C-64.63 123.31 -71.92 117.02 -79.06 110.02 C-79.79 109.31 -80.53 108.61 -81.29 107.88 C-83.43 105.81 -85.56 103.73 -87.68 101.65 C-88.76 100.61 -89.83 99.58 -90.91 98.54 C-102.81 86.93 -118.87 70.14 -123.68 53.65 C-121.42 44.27 -111.62 35.57 -103.68 30.65 C-103.02 30.65 -102.36 30.65 -101.68 30.65 C-101.61 31.45 -101.53 32.25 -101.46 33.07 C-98.85 54.86 -82.83 70.47 -68.06 85.46 C-67.53 86 -67.01 86.54 -66.46 87.1 C-62.81 90.76 -58.96 93.73 -54.68 96.65 C-52.81 95.02 -50.95 93.39 -49.09 91.76 C-47.5 90.37 -45.91 88.98 -44.31 87.6 C-29.37 74.5 -13.85 57.77 -8.75 38.02 C-8.64 32.32 -9.47 27.55 -12.56 22.71 C-15.94 19.43 -18.74 18.35 -23.43 18.27 C-33.25 18.57 -38.64 24.07 -45.12 30.88 C-48.07 34.06 -50.92 37.29 -53.68 40.65 C-56.87 39.25 -58.91 37.62 -61.29 35.09 C-61.97 34.4 -62.64 33.7 -63.33 32.98 C-64.72 31.52 -66.11 30.06 -67.49 28.59 C-74.13 21.73 -80.18 18.09 -89.82 17.55 C-101.92 17.95 -111.28 24.7 -120.68 31.65 C-116.47 19.87 -106.18 8.25 -94.99 2.64 C-83.93 -2.13 -72.3 -3.02 -60.68 0.65 C-58.28 2.13 -56.67 3.61 -54.68 5.65 C-53.96 5.05 -53.23 4.44 -52.48 3.82 C-36.22 -9.11 -17.97 -11.53 0 0 Z "/>
</svg>
